<?xml version="1.0" encoding="utf-8"?><svg viewBox="0 0 555 545" xmlns="http://www.w3.org/2000/svg" xmlns:xlink="http://www.w3.org/1999/xlink"><style>:root>svg{display:none}:root>svg:target{display:block}</style><svg viewBox="0 0 555 545" id="beary" xmlns="http://www.w3.org/2000/svg"><path d="M10.247 9.566l151 86m.183.179l54 91m.009.015l71 130m.005.469l-50 97m49.763-97.684l259 118M236.29 413.593l170 121m-.582.001l139-100"/><circle cx="10" cy="10" r="10"/><circle cx="161" cy="96" r="20"/><circle cx="215" cy="187" r="10"/><circle cx="286" cy="317" r="10"/><circle cx="236" cy="414" r="10"/><circle cx="406" cy="535" r="10"/><circle cx="545" cy="435" r="10"/></svg><svg viewBox="0 0 502.664 502.664" id="icon" xmlns="http://www.w3.org/2000/svg"><path d="M153.821 358.226L0 274.337v-46.463l153.821-83.414v54.574L46.636 250.523l107.185 53.431v54.272zm26.273 29.358L282.103 115.08h32.227L212.084 387.584h-31.99zm168.749-29.358v-54.272l107.164-52.999-107.164-52.59v-53.927l153.821 83.522v46.183l-153.821 84.083z"/></svg><svg viewBox="0 0 101 8" id="slider-arrow" xmlns="http://www.w3.org/2000/svg"><path d="M.646 4.354a.5.5 0 010-.708L3.828.464a.5.5 0 01.708.708L1.707 4l2.829 2.828a.5.5 0 11-.708.708L.646 4.354zM101 4.5H1v-1h100v1z"/></svg></svg>